<?xml version="1.0" encoding="UTF-8"?>
<!-- Generator: Adobe Illustrator 25.0.0, SVG Export Plug-In . SVG Version: 6.00 Build 0)  -->
<svg xmlns="http://www.w3.org/2000/svg" xmlns:xlink="http://www.w3.org/1999/xlink" id="Layer_2_1_" x="0px" y="0px" viewBox="0 0 478.3 106.2" style="enable-background:new 0 0 478.3 106.2;" xml:space="preserve">
<style type="text/css">
	.st0{fill:#FFFFFF;}
	.st1{fill:#231F20;}
	.st2{fill:#E21936;}
	.st3{enable-background:new    ;}
	.st4{fill:#CE0E2D;}
</style>
<path class="st0" d="M100.6,50.3c0,27.7-22.4,50.3-50.2,50.3S0.2,78.2,0.1,50.5S22.5,0.2,50.3,0.2c0,0,0,0,0.1,0  C78.1,0.2,100.6,22.6,100.6,50.3z"></path>
<path class="st1" d="M36.9,21.9h54.8C75.9-1,44.6-6.7,21.8,9.1C1.1,23.4-5.9,50.8,5.6,73.2L36.9,21.9z"></path>
<path class="st2" d="M91.8,21.9l-9.6,15.6H48.6L31.7,65.8H65l-11.5,19H13.7c19,20.2,50.8,21.2,71,2.2C102.8,70,105.8,42.5,91.8,21.9  L91.8,21.9z"></path>
<path class="st1" d="M173.8,36.6H153v-1.2c-0.3-3.9-2.4-6-4.7-5.9c-2.8,0.1-4.6,2.4-5.4,10.1c-0.1,1.1-0.1,2.3-0.1,3.6  c0,1.8,0.2,3.5,0.5,5.2c0.7,3.6,1.4,4.9,2.7,5.8c2.2,1.1,4.9,0.3,6-1.9c0,0,0-0.1,0-0.1c0.5-1.1,0.8-2.5,1-6.5c0-0.3,0-0.6-0.1-0.9  h20.9c0.1,1.3,0.1,2.7-0.1,4c-1.4,13.1-7.5,19-21.4,20.8c-3.1,0.4-6.3,0.5-9.5,0.1c-17.5-2.5-26.7-15.8-22.5-36.6  c2.4-12.2,10.8-19.6,22.9-20.8c17.6-1.6,27.9,6.2,30.2,20.1C173.7,33.7,173.8,35.1,173.8,36.6z"></path>
<path class="st1" d="M207.4,13.1c18.7-0.1,29.6,12.5,29.6,28.5s-9.6,28.3-29.6,28.1c-20.4-0.2-30.2-11.9-30.3-28  C176.9,25.4,188.4,13.1,207.4,13.1z M201.1,42.8c0.4,5.5,1.5,12.8,6.1,12.6c4-0.2,6.1-7.9,6.1-13.7s-1.5-13.6-6.5-13.8  S200.7,36.6,201.1,42.8L201.1,42.8z"></path>
<path class="st1" d="M240.3,50.2V13.8h22.9v32.7l0.1,1.1l0.1,0.6l0.1,1.3c0.1,2,0.6,3,1.8,3.9c1.4,1.1,3.4,1.1,4.8,0  c1.2-0.8,1.7-1.8,1.8-3.9l0.2-1.4v-0.5l0.1-1.1V13.8h22.9v36.4c0,12-6.4,18.1-24.1,19.2c-2.2,0.1-4.2,0.1-6.5,0  C246.6,68.3,240.3,62.2,240.3,50.2z"></path>
<path class="st1" d="M299.8,68.3V13.8H326l12.3,31.5l-0.5-31.5h17.1v54.6h-25.8l-12.5-30.8l0.5,30.8H299.8z"></path>
<path class="st1" d="M358.7,27.9V13.8h49.1v14.2h-13.1v40.4h-22.8V27.9H358.7z"></path>
<path class="st1" d="M410.3,13.8H432l6.3,19.9l6.1-19.8H466l-16.2,35.5v19h-23V49.1L410.3,13.8z"></path>
<g class="st3">
	<path class="st4" d="M128.6,89.6v8.6h-3.2V77h3.6c1.8,0,3.1,0.1,4,0.4c0.9,0.2,1.7,0.7,2.4,1.4c1.2,1.2,1.8,2.7,1.8,4.5   c0,1.9-0.6,3.5-1.9,4.6c-1.3,1.1-3,1.7-5.2,1.7H128.6z M128.6,86.6h1.2c2.9,0,4.4-1.1,4.4-3.4c0-2.2-1.5-3.3-4.5-3.3h-1.1V86.6z"></path>
	<path class="st4" d="M157.7,89.1l6.5,9h-3.9l-6-8.6h-0.6v8.6h-3.2V77h3.7c2.8,0,4.8,0.5,6,1.6c1.4,1.2,2.1,2.7,2.1,4.6   c0,1.5-0.4,2.8-1.3,3.9C160.3,88.1,159.1,88.8,157.7,89.1z M153.8,86.7h1c3,0,4.5-1.2,4.5-3.5c0-2.2-1.5-3.2-4.4-3.2h-1.1V86.7z"></path>
	<path class="st4" d="M189.2,80h-8.5v5.1h8.2v3h-8.2v7.1h8.5v3h-11.6V77h11.6V80z"></path>
</g>
<g class="st3">
	<path class="st4" d="M215.4,80.2l-2.6,1.5c-0.5-0.8-0.9-1.4-1.4-1.6c-0.5-0.3-1-0.4-1.8-0.4c-0.9,0-1.6,0.3-2.2,0.8   c-0.6,0.5-0.9,1.1-0.9,1.9c0,1,0.8,1.9,2.3,2.5l2.1,0.9c1.7,0.7,3,1.5,3.8,2.5s1.2,2.2,1.2,3.7c0,1.9-0.6,3.5-1.9,4.8   c-1.3,1.3-2.9,1.9-4.9,1.9c-1.8,0-3.3-0.5-4.5-1.6c-1.2-1.1-1.9-2.6-2.2-4.6l3.2-0.7c0.1,1.2,0.4,2.1,0.8,2.6   c0.7,0.9,1.6,1.4,2.9,1.4c1,0,1.8-0.3,2.5-1s1-1.5,1-2.5c0-0.4-0.1-0.8-0.2-1.1c-0.1-0.3-0.3-0.7-0.5-0.9c-0.2-0.3-0.6-0.6-0.9-0.8   s-0.8-0.5-1.4-0.7l-2-0.8c-2.9-1.2-4.3-3-4.3-5.4c0-1.6,0.6-2.9,1.8-4c1.2-1.1,2.7-1.6,4.5-1.6C212.1,76.6,214,77.8,215.4,80.2z"></path>
</g>
<g class="st3">
	<path class="st4" d="M235.5,80v18.1h-3.2V80h-4.9v-3h12.9v3H235.5z"></path>
	<path class="st4" d="M260.4,89.1l6.5,9H263l-6-8.6h-0.6v8.6h-3.2V77h3.7c2.8,0,4.8,0.5,6,1.6c1.4,1.2,2.1,2.7,2.1,4.6   c0,1.5-0.4,2.8-1.3,3.9S261.8,88.8,260.4,89.1z M256.4,86.7h1c3,0,4.5-1.2,4.5-3.5c0-2.2-1.5-3.2-4.4-3.2h-1.1V86.7z"></path>
	<path class="st4" d="M291.8,80h-8.5v5.1h8.2v3h-8.2v7.1h8.5v3h-11.6V77h11.6V80z"></path>
	<path class="st4" d="M318,80.2l-2.6,1.5c-0.5-0.8-0.9-1.4-1.4-1.6c-0.5-0.3-1-0.4-1.8-0.4c-0.9,0-1.6,0.3-2.2,0.8   c-0.6,0.5-0.9,1.1-0.9,1.9c0,1,0.8,1.9,2.3,2.5l2.1,0.9c1.7,0.7,3,1.5,3.8,2.5s1.2,2.2,1.2,3.7c0,1.9-0.6,3.5-1.9,4.8   c-1.3,1.3-2.9,1.9-4.9,1.9c-1.8,0-3.3-0.5-4.5-1.6c-1.2-1.1-1.9-2.6-2.2-4.6l3.2-0.7c0.1,1.2,0.4,2.1,0.8,2.6   c0.7,0.9,1.6,1.4,2.9,1.4c1,0,1.8-0.3,2.5-1s1-1.5,1-2.5c0-0.4-0.1-0.8-0.2-1.1s-0.3-0.7-0.5-0.9s-0.6-0.6-0.9-0.8   s-0.8-0.5-1.4-0.7l-2-0.8c-2.9-1.2-4.3-3-4.3-5.4c0-1.6,0.6-2.9,1.8-4c1.2-1.1,2.7-1.6,4.5-1.6C314.8,76.6,316.7,77.8,318,80.2z"></path>
	<path class="st4" d="M344.4,80.2l-2.6,1.5c-0.5-0.8-0.9-1.4-1.4-1.6c-0.5-0.3-1-0.4-1.8-0.4c-0.9,0-1.6,0.3-2.2,0.8   c-0.6,0.5-0.9,1.1-0.9,1.9c0,1,0.8,1.9,2.3,2.5l2.1,0.9c1.7,0.7,3,1.5,3.8,2.5s1.2,2.2,1.2,3.7c0,1.9-0.6,3.5-1.9,4.8   c-1.3,1.3-2.9,1.9-4.9,1.9c-1.8,0-3.3-0.5-4.5-1.6c-1.2-1.1-1.9-2.6-2.2-4.6l3.2-0.7c0.1,1.2,0.4,2.1,0.8,2.6   c0.7,0.9,1.6,1.4,2.9,1.4c1,0,1.8-0.3,2.5-1s1-1.5,1-2.5c0-0.4-0.1-0.8-0.2-1.1c-0.1-0.3-0.3-0.7-0.5-0.9c-0.2-0.3-0.6-0.6-0.9-0.8   s-0.8-0.5-1.4-0.7l-2-0.8c-2.9-1.2-4.3-3-4.3-5.4c0-1.6,0.6-2.9,1.8-4c1.2-1.1,2.7-1.6,4.5-1.6C341.2,76.6,343.1,77.8,344.4,80.2z"></path>
	<path class="st4" d="M360.2,94.2l2.7,1.1l-3.9,7.8l-2.1-0.9L360.2,94.2z"></path>
</g>
<g class="st3">
	<path class="st4" d="M395.6,77v18.1h6.2v3h-9.4V77H395.6z"></path>
</g>
<g class="st3">
	<path class="st4" d="M418.1,77v18.1h6.2v3h-9.4V77H418.1z"></path>
</g>
<g class="st3">
	<path class="st4" d="M452.1,78.2v3.8c-1.8-1.5-3.7-2.3-5.7-2.3c-2.2,0-4,0.8-5.5,2.3c-1.5,1.5-2.2,3.4-2.2,5.7   c0,2.2,0.7,4.1,2.2,5.6s3.3,2.3,5.5,2.3c1.1,0,2.1-0.2,2.9-0.5c0.4-0.2,0.9-0.4,1.4-0.7c0.5-0.3,1-0.7,1.5-1.1V97   c-1.8,1-3.7,1.5-5.7,1.5c-3,0-5.6-1.1-7.7-3.2c-2.1-2.1-3.2-4.7-3.2-7.7c0-2.7,0.9-5.1,2.7-7.2c2.2-2.6,5-3.9,8.5-3.9   C448.5,76.6,450.3,77.1,452.1,78.2z"></path>
</g>
<path class="st1" d="M470.5,14.2h-1.4v-0.5h3.5v0.5h-1.5v4.2h-0.6V14.2z"></path>
<path class="st1" d="M477.6,16.3c0-0.7-0.1-1.5-0.1-2l0,0c-0.2,0.5-0.4,1.1-0.6,1.8l-0.8,2.3h-0.5l-0.8-2.2  c-0.2-0.7-0.4-1.3-0.5-1.8l0,0c0,0.6,0,1.4-0.1,2.1l-0.1,2h-0.6l0.3-4.7h0.8l0.8,2.3c0.2,0.6,0.4,1.1,0.5,1.6l0,0  c0.1-0.5,0.3-1,0.5-1.6l0.8-2.3h0.8l0.3,4.7h-0.6L477.6,16.3z"></path>
</svg>
